<?xml version="1.0" encoding="UTF-8"?>
<svg version="1.1" xmlns="http://www.w3.org/2000/svg" width="96" height="96">
<path d="M0 0 C2.24296152 0.00850527 4.483363 -0.02032802 6.72607422 -0.05200195 C18.50336521 -0.11020919 29.05858034 1.50014411 38.34326172 9.40307617 C48.3782856 19.47662222 50.81869824 29.98916421 50.83740234 43.82495117 C50.83313232 44.56503418 50.8288623 45.30511719 50.82446289 46.06762695 C50.81595762 48.31058848 50.84479091 50.55098995 50.87646484 52.79370117 C50.93467208 64.57099216 49.32431878 75.12620729 41.42138672 84.41088867 C31.34784067 94.44591256 20.83529868 96.88632519 6.99951172 96.9050293 C6.25942871 96.90075928 5.5193457 96.89648926 4.75683594 96.89208984 C2.51387441 96.88358457 0.27347294 96.91241786 -1.96923828 96.9440918 C-13.74652927 97.00229903 -24.3017444 95.39194574 -33.58642578 87.48901367 C-43.62144967 77.41546762 -46.0618623 66.90292564 -46.08056641 53.06713867 C-46.07629639 52.32705566 -46.07202637 51.58697266 -46.06762695 50.82446289 C-46.05912168 48.58150137 -46.08795497 46.34109989 -46.11962891 44.09838867 C-46.17783614 32.32109768 -44.56748285 21.76588255 -36.66455078 12.48120117 C-25.92721384 1.78492479 -14.60181286 -0.08424734 0 0 Z " fill="#FDFDFD" transform="translate(45.62158203125,-0.446044921875)"/>
<path d="M0 0 C1.60895546 -0.01115427 3.21789605 -0.02468112 4.82681274 -0.04046631 C8.19486402 -0.06272296 11.5607736 -0.05153954 14.92871094 -0.01757812 C19.23033635 0.02246157 23.52539218 -0.02770615 27.82633018 -0.10412979 C31.14862533 -0.15184906 34.46936688 -0.14762082 37.79188919 -0.12847137 C39.37626283 -0.12617553 40.9607574 -0.14057889 42.54481125 -0.17249298 C54.83376795 -0.38090375 54.83376795 -0.38090375 59.52764893 3.70227051 C64.7265625 10.60146575 64.7265625 10.60146575 64.7265625 15.265625 C46.2465625 15.265625 27.7665625 15.265625 8.7265625 15.265625 C11.2015625 19.225625 11.2015625 19.225625 13.7265625 23.265625 C13.83940868 28.42999713 11.26356403 32.33954993 8.6640625 36.640625 C8.28701172 37.28128906 7.90996094 37.92195313 7.52148438 38.58203125 C6.59816633 40.14816566 5.66350857 41.70760534 4.7265625 43.265625 C5.3040625 43.554375 5.8815625 43.843125 6.4765625 44.140625 C8.55989583 45.18229167 10.64322917 46.22395833 12.7265625 47.265625 C16.17452395 42.03903213 19.53490911 36.86549953 22.2265625 31.203125 C23.05685729 29.55575668 23.89028409 27.90996384 24.7265625 26.265625 C25.16742188 25.32589844 25.60828125 24.38617188 26.0625 23.41796875 C27.72395345 20.41976215 29.06180708 18.43461197 31.7265625 16.265625 C37.00744176 14.80842874 41.54403025 14.41472063 46.7265625 16.265625 C49.55721955 19.29100845 51.59239462 22.72837498 53.7265625 26.265625 C54.37689453 27.27786133 55.02722656 28.29009766 55.69726562 29.33300781 C57.74958974 32.53593712 59.74219187 35.77023132 61.7265625 39.015625 C62.76490234 40.66111328 62.76490234 40.66111328 63.82421875 42.33984375 C64.47261719 43.40332031 65.12101562 44.46679688 65.7890625 45.5625 C66.37816406 46.51479492 66.96726562 47.46708984 67.57421875 48.44824219 C69.38036053 52.86410578 68.23346629 55.73598604 66.78393555 60.11010742 C64.36228016 62.647285 63.73174291 62.63059618 60.34692383 62.83325195 C58.50062452 62.83246023 56.65420802 62.80420255 54.80859375 62.75390625 C53.83621262 62.74683151 52.86383148 62.73975677 51.86198425 62.73246765 C48.75356388 62.70445908 45.64693916 62.64170775 42.5390625 62.578125 C40.43296871 62.55305053 38.3268467 62.53023588 36.22070312 62.50976562 C31.05529679 62.45461099 25.89123415 62.36829295 20.7265625 62.265625 C24.30693889 51.23936804 24.30693889 51.23936804 27.7265625 48.265625 C32.02951558 47.2688137 36.15186216 47.51001221 40.5390625 47.765625 C41.70888672 47.80171875 42.87871094 47.8378125 44.08398438 47.875 C46.96818081 47.96917784 49.84569701 48.10055061 52.7265625 48.265625 C50.77975498 45.09173342 48.81726539 41.9278427 46.8515625 38.765625 C46.01818359 37.40630859 46.01818359 37.40630859 45.16796875 36.01953125 C44.36552734 34.73369141 44.36552734 34.73369141 43.546875 33.421875 C42.80848389 32.22788086 42.80848389 32.22788086 42.05517578 31.00976562 C41.6167334 30.43419922 41.17829102 29.85863281 40.7265625 29.265625 C40.0665625 29.265625 39.4065625 29.265625 38.7265625 29.265625 C37.45165909 30.8444059 37.45165909 30.8444059 36.22265625 32.9296875 C35.73434326 33.71625732 35.24603027 34.50282715 34.74291992 35.31323242 C34.22189697 36.16377197 33.70087402 37.01431152 33.1640625 37.890625 C32.62177002 38.74696533 32.07947754 39.60330566 31.52075195 40.4855957 C29.006228 44.46955504 26.58757738 48.43905211 24.4609375 52.64453125 C21.83458341 57.67319027 19.5989648 61.4243091 14.2578125 63.82421875 C9.84676624 64.47422049 6.56376062 64.58467012 2.7265625 62.265625 C-2.37388221 56.99437101 -7.38415013 49.40027562 -9.2734375 42.265625 C-8.22253037 38.50596855 -6.22678489 35.30506033 -4.234375 31.96484375 C-3.71149902 31.08401123 -3.18862305 30.20317871 -2.64990234 29.2956543 C-1.98941895 28.19261963 -1.32893555 27.08958496 -0.6484375 25.953125 C2.5071875 20.6628125 2.5071875 20.6628125 5.7265625 15.265625 C-3.8434375 15.265625 -13.4134375 15.265625 -23.2734375 15.265625 C-20.42335377 1.01520634 -13.25079236 -0.12421662 0 0 Z " fill="#C098D8" transform="translate(25.2734375,17.734375)"/>
<path d="M0 0 C3.58597597 3.01410363 5.67753932 6.99421672 8 11 C9.02696965 12.69451691 10.05715934 14.38708475 11.08984375 16.078125 C13.69548132 20.36393219 16.2600227 24.67206497 18.79833984 28.99804688 C19.81715183 30.69537687 20.90190277 32.35285415 22 34 C21.70609148 37.82081072 20.81172874 40.38006582 18 43 C14.93512535 43.35498268 12.23510942 43.46603182 9.17578125 43.390625 C7.88367989 43.38213531 7.88367989 43.38213531 6.56547546 43.37347412 C3.81391852 43.3510813 1.06366337 43.3008808 -1.6875 43.25 C-3.55271557 43.2299387 -5.41795155 43.21168728 -7.28320312 43.1953125 C-11.85597042 43.15120713 -16.4277645 43.08216057 -21 43 C-19.66452016 39.40447736 -18.37283509 36.0332358 -16 33 C-13.36450195 32.43237305 -13.36450195 32.43237305 -10.23828125 32.51171875 C-9.12001953 32.52783203 -8.00175781 32.54394531 -6.84960938 32.56054688 C-5.09874023 32.62338867 -5.09874023 32.62338867 -3.3125 32.6875 C-2.13365234 32.71005859 -0.95480469 32.73261719 0.25976562 32.75585938 C3.17444548 32.81486099 6.08659161 32.89713659 9 33 C8.49024176 28.9472952 7.76888257 26.09143373 5.49609375 22.6953125 C5.00302734 21.94765625 4.50996094 21.2 4.00195312 20.4296875 C3.48568359 19.66914062 2.96941406 18.90859375 2.4375 18.125 C1.91736328 17.34125 1.39722656 16.5575 0.86132812 15.75 C-0.41674717 13.82702433 -1.70391263 11.91086131 -3 10 C-5.35211485 9.95370375 -5.35211485 9.95370375 -8 11 C-9.748139 13.34924327 -11.19273755 15.53628538 -12.625 18.0625 C-14.00662472 20.46400648 -15.42341115 22.71187948 -17 25 C-17.99 25 -18.98 25 -20 25 C-21.75 22.75 -21.75 22.75 -23 20 C-22.55527832 17.08939345 -21.50398568 14.87440816 -20.00390625 12.36328125 C-19.41319336 11.37424805 -19.41319336 11.37424805 -18.81054688 10.36523438 C-18.39869141 9.68783203 -17.98683594 9.01042969 -17.5625 8.3125 C-17.15451172 7.62349609 -16.74652344 6.93449219 -16.32617188 6.22460938 C-12.24036254 -0.55396827 -7.80293987 -1.87355718 0 0 Z " fill="#6F62D7" transform="translate(70,35)"/>
<path d="M0 0 C0.905793 0.00565979 1.811586 0.01131958 2.74482727 0.01715088 C5.63901536 0.03954884 8.53196715 0.08975108 11.42578125 0.140625 C13.38735192 0.1606856 15.34894198 0.17893714 17.31054688 0.1953125 C22.12026831 0.23942482 26.92906515 0.30847559 31.73828125 0.390625 C30.56731659 4.64388321 29.09099526 7.47658385 25.73828125 10.390625 C19.22650733 12.19440132 12.03318673 11.32031815 5.36328125 11.015625 C3.46365794 10.96543894 1.56390822 10.91981593 -0.3359375 10.87890625 C-4.98098998 10.76894428 -9.61997158 10.59657283 -14.26171875 10.390625 C-11.52049217 1.11262735 -9.34256127 -0.2188466 0 0 Z " fill="#651CE3" transform="translate(19.26171875,20.609375)"/>
<path d="M0 0 C-0.66 1.98 -1.32 3.96 -2 6 C-1.15115234 6.81404297 -1.15115234 6.81404297 -0.28515625 7.64453125 C0.44832031 8.35996094 1.18179687 9.07539062 1.9375 9.8125 C2.66839844 10.52019531 3.39929688 11.22789063 4.15234375 11.95703125 C6 14 6 14 7 17 C7.25523438 16.28457031 7.51046875 15.56914063 7.7734375 14.83203125 C9.0876888 11.79753382 10.69496016 9.36811089 12.625 6.6875 C13.25664063 5.80449219 13.88828125 4.92148437 14.5390625 4.01171875 C15.02117188 3.34785156 15.50328125 2.68398438 16 2 C18.7489274 4.37407366 20.23717022 6.41823634 21 10 C18.6274983 16.39941854 15.13892204 22.44432346 8.88671875 25.54296875 C4.71500773 26.1275079 2.78590037 25.91973722 -1 24 C-5.65575547 18.99887015 -9.64275538 12.42111432 -12 6 C-10.66144904 3.32289809 -9.27941912 3.04870906 -6.5625 1.875 C-5.75941406 1.52179687 -4.95632812 1.16859375 -4.12890625 0.8046875 C-2 0 -2 0 0 0 Z " fill="#6D18B4" transform="translate(30,54)"/>
<path d="M0 0 C0.33 0.66 0.66 1.32 1 2 C1.7425 2.268125 2.485 2.53625 3.25 2.8125 C6.62134511 4.26830812 8.53214507 6.32061465 11 9 C10.34 9.99 9.68 10.98 9 12 C6.0204901 12.26653946 3.2511418 12.34767784 0.2734375 12.29296875 C-0.58937836 12.28872391 -1.45219421 12.28447906 -2.34115601 12.28010559 C-5.10275197 12.26328392 -7.86362383 12.22562598 -10.625 12.1875 C-12.49478114 12.17245764 -14.3645737 12.15876846 -16.234375 12.14648438 C-20.82319658 12.11336906 -25.41147544 12.06156339 -30 12 C-28.66452016 8.40447736 -27.37283509 5.0332358 -25 2 C-22.36450195 1.43237305 -22.36450195 1.43237305 -19.23828125 1.51171875 C-18.12001953 1.52783203 -17.00175781 1.54394531 -15.84960938 1.56054688 C-14.09874023 1.62338867 -14.09874023 1.62338867 -12.3125 1.6875 C-10.54422852 1.72133789 -10.54422852 1.72133789 -8.74023438 1.75585938 C-5.82555452 1.81486099 -2.91340839 1.89713659 0 2 C0 1.34 0 0.68 0 0 Z " fill="#BC4CCE" transform="translate(79,66)"/>
<path d="M0 0 C1.2271875 0.00580078 2.454375 0.01160156 3.71875 0.01757812 C5.54792969 -0.04913086 5.54792969 -0.04913086 7.4140625 -0.1171875 C16.14175984 -0.14100763 16.14175984 -0.14100763 19.53222656 2.59814453 C23.34375 7.54327726 23.34375 7.54327726 23.34375 10.83007812 C10.47375 10.83007812 -2.39625 10.83007812 -15.65625 10.83007812 C-12.00224405 1.69506326 -9.54027659 0.16178806 0 0 Z " fill="#0286D1" transform="translate(63.65625,20.169921875)"/>
<path d="M0 0 C1.95292969 -0.16048828 1.95292969 -0.16048828 3.9453125 -0.32421875 C6.72706261 -0.01687693 7.67505903 0.48144513 9.64746094 2.51416016 C11.53342679 5.167471 13.21053085 7.88994473 14.875 10.6875 C16.20822945 12.76569165 17.54156592 14.84381465 18.875 16.921875 C20.2122646 19.09133166 21.54556399 21.26323721 22.875 23.4375 C23.56722656 24.53449219 24.25945312 25.63148437 24.97265625 26.76171875 C25.94525391 28.35693359 25.94525391 28.35693359 26.9375 29.984375 C27.52660156 30.93666992 28.11570313 31.88896484 28.72265625 32.87011719 C30.52879803 37.28598078 29.38190379 40.15786104 27.93237305 44.53198242 C25.51071766 47.06916 24.88018041 47.05247118 21.49536133 47.25512695 C19.64906202 47.25433523 17.80264552 47.22607755 15.95703125 47.17578125 C14.98465012 47.16870651 14.01226898 47.16163177 13.01042175 47.15434265 C9.90200138 47.12633408 6.79537666 47.06358275 3.6875 47 C1.58140621 46.97492553 -0.5247158 46.95211088 -2.63085938 46.93164062 C-7.79626571 46.87648599 -12.96032835 46.79016795 -18.125 46.6875 C-14.57979459 35.75669434 -14.57979459 35.75669434 -11.125 32.6875 C-6.8934858 31.57466425 -2.79130474 31.65903965 1.5625 31.75 C3.83724896 31.7436424 6.1119926 31.7346636 8.38671875 31.72265625 C9.39178467 31.7369165 10.39685059 31.75117676 11.43237305 31.76586914 C13.88317364 31.85770551 13.88317364 31.85770551 15.875 30.6875 C15.545 32.0075 15.215 33.3275 14.875 34.6875 C6.625 34.6875 -1.625 34.6875 -10.125 34.6875 C-11.115 37.1625 -11.115 37.1625 -12.125 39.6875 C-13.09736487 41.3704392 -14.09064444 43.04193434 -15.125 44.6875 C-9.62500641 44.66811375 -4.12662052 44.61650306 1.37280273 44.53491211 C3.24380738 44.5117051 5.11494317 44.49733005 6.98608398 44.49194336 C9.67515028 44.48267318 12.36214645 44.44172841 15.05078125 44.39453125 C15.88837479 44.3984639 16.72596832 44.40239655 17.58894348 44.40644836 C20.22786023 44.39566383 20.22786023 44.39566383 23.875 43.6875 C26.16599855 41.59206624 26.16599855 41.59206624 26.875 38.6875 C26.64501925 35.02220379 25.40017014 32.51848311 23.43359375 29.46484375 C22.93674072 28.68407471 22.4398877 27.90330566 21.92797852 27.09887695 C20.83608482 25.42679613 19.74412341 23.75475953 18.65209961 22.08276367 C18.10432861 21.24334229 17.55655762 20.4039209 16.9921875 19.5390625 C16.45303711 18.71438477 15.91388672 17.88970703 15.35839844 17.04003906 C14.0628878 14.98547347 12.8878184 12.92169047 11.7578125 10.7734375 C9.99322908 7.60021666 8.57336331 5.12029504 5.875 2.6875 C1.37158833 1.72434259 -2.60159703 1.94279341 -7.125 2.6875 C-7.3828125 3.39390625 -7.640625 4.1003125 -7.90625 4.828125 C-9.2239787 7.91971926 -10.81846836 10.60522581 -12.625 13.4375 C-13.2334375 14.40171875 -13.841875 15.3659375 -14.46875 16.359375 C-16.125 18.6875 -16.125 18.6875 -18.125 19.6875 C-16.60230437 15.44627447 -14.44869719 11.73663327 -12.0625 7.9375 C-11.69833984 7.34839844 -11.33417969 6.75929688 -10.95898438 6.15234375 C-7.52565044 0.63108585 -6.63601907 0.39608333 0 0 Z " fill="#CEBADF" transform="translate(64.125,33.3125)"/>
<path d="M0 0 C1.60895546 -0.01115427 3.21789605 -0.02468112 4.82681274 -0.04046631 C8.19486402 -0.06272296 11.5607736 -0.05153954 14.92871094 -0.01757812 C19.23033635 0.02246157 23.52539218 -0.02770615 27.82633018 -0.10412979 C31.14862533 -0.15184906 34.46936688 -0.14762082 37.79188919 -0.12847137 C39.37626283 -0.12617553 40.9607574 -0.14057889 42.54481125 -0.17249298 C54.83376795 -0.38090375 54.83376795 -0.38090375 59.52764893 3.70227051 C64.7265625 10.60146575 64.7265625 10.60146575 64.7265625 15.265625 C60.53141653 15.29069713 56.33631244 15.30865739 52.14111328 15.32055664 C50.71955606 15.32552712 49.29800378 15.33230584 47.87646484 15.34106445 C39.11221893 15.39363756 30.45389986 15.18587562 21.7265625 14.265625 C21.7265625 13.935625 21.7265625 13.605625 21.7265625 13.265625 C34.9265625 13.265625 48.1265625 13.265625 61.7265625 13.265625 C57.10338227 4.35200009 57.10338227 4.35200009 52.34997559 3.11604309 C50.50514587 3.10077827 50.50514587 3.10077827 48.62304688 3.08520508 C47.59743401 3.05913933 47.59743401 3.05913933 46.55110168 3.032547 C44.30543738 2.98806623 42.06618434 3.00910344 39.8203125 3.03515625 C38.25140857 3.02654544 36.68251664 3.0154124 35.11364746 3.00187683 C31.83131512 2.98413048 28.55118733 2.99929635 25.26904297 3.03735352 C21.07065366 3.08305346 16.87818447 3.04312756 12.68022919 2.97800159 C9.44209999 2.93788607 6.20537366 2.94517417 2.96711731 2.96640587 C1.42019817 2.97054793 -0.12683942 2.9596726 -1.67353821 2.93323708 C-6.35070586 2.8678771 -10.74714418 2.93517449 -15.2734375 4.265625 C-18.26959819 7.25811354 -19.87596938 10.29183688 -21.2734375 14.265625 C-22.16804818 11.80111942 -22.34047689 10.5070763 -21.63070679 7.95074463 C-16.79415725 -0.9677663 -9.05938127 -0.08492517 0 0 Z " fill="#87C5E0" transform="translate(25.2734375,17.734375)"/>
<path d="M0 0 C2.97 0 5.94 0 9 0 C5.22763953 6.1729535 1.19346876 12.10621817 -3 18 C-3.51433594 18.72316406 -4.02867188 19.44632813 -4.55859375 20.19140625 C-5.70302457 21.79620301 -6.85105109 23.39843485 -8 25 C-10.19407085 23.08903506 -11.76974926 21.53628021 -12.92578125 18.84375 C-13.04131837 14.41685411 -10.72681698 11.7233931 -8.25 8.1875 C-7.79367188 7.49462891 -7.33734375 6.80175781 -6.8671875 6.08789062 C-5.6671918 4.32778132 -4.34088992 2.65529112 -3 1 C-2.01 1 -1.02 1 0 1 C0 0.67 0 0.34 0 0 Z " fill="#094AB2" transform="translate(60,36)"/>
<path d="M0 0 C2.91785001 0.25208595 4.51350045 0.50336194 6.59326172 2.62646484 C7.03428223 3.31434082 7.47530273 4.0022168 7.9296875 4.7109375 C8.65671875 5.83628906 8.65671875 5.83628906 9.3984375 6.984375 C10.12933594 8.16773438 10.12933594 8.16773438 10.875 9.375 C11.38546875 10.15617187 11.8959375 10.93734375 12.421875 11.7421875 C15.1635125 16.06952886 15.1635125 16.06952886 16 18 C15.505 19.485 15.505 19.485 15 21 C11.14223354 15.57466849 7.38063556 10.16246277 4.04296875 4.3984375 C3.69878906 3.93695313 3.35460937 3.47546875 3 3 C2.34 3 1.68 3 1 3 C-0.27490341 4.5787809 -0.27490341 4.5787809 -1.50390625 6.6640625 C-2.23637573 7.84391724 -2.23637573 7.84391724 -2.98364258 9.04760742 C-3.50466553 9.89814697 -4.02568848 10.74868652 -4.5625 11.625 C-5.10479248 12.48134033 -5.64708496 13.33768066 -6.20581055 14.2199707 C-8.7203345 18.20393004 -11.13898512 22.17342711 -13.265625 26.37890625 C-15.89980902 31.42011414 -18.08676825 35.18735642 -23.50390625 37.48828125 C-27.83157139 38.06035404 -31.1924363 38.20305535 -35 36 C-39.49099075 31.39250656 -46 22.67810385 -46 16 C-45.34 16 -44.68 16 -44 16 C-43.0612793 17.56054688 -43.0612793 17.56054688 -42.07421875 19.71875 C-38.00325762 28.60858539 -38.00325762 28.60858539 -30.73046875 34.5859375 C-26.79530148 34.9249391 -24.59073681 34.67021598 -21 33 C-17.1831332 29.12741251 -14.63457695 25.25275085 -13 20 C-13.33771461 17.42011287 -14.04685619 15.45317341 -15 13 C-13.68 13.99 -12.36 14.98 -11 16 C-10.28972656 14.92878906 -9.57945313 13.85757813 -8.84765625 12.75390625 C-7.91933146 11.35673055 -6.99094274 9.95959733 -6.0625 8.5625 C-5.59392578 7.85544922 -5.12535156 7.14839844 -4.64257812 6.41992188 C-4.19462891 5.74638672 -3.74667969 5.07285156 -3.28515625 4.37890625 C-2.87144775 3.7557251 -2.45773926 3.13254395 -2.03149414 2.49047852 C-1 1 -1 1 0 0 Z " fill="#A898D4" transform="translate(63,44)"/>
<path d="M0 0 C2.74873644 2.37390874 4.27043498 4.40790555 5 8 C3.79347787 10.74182155 2.64095427 12.86116677 1 15.3125 C0.61199219 15.95767578 0.22398438 16.60285156 -0.17578125 17.26757812 C-1.375 19.11328125 -1.375 19.11328125 -4 22 C-7.3125 22.41796875 -7.3125 22.41796875 -10 22 C-9.28338874 12.7377994 -5.88035298 7.07009881 0 0 Z " fill="#781DC7" transform="translate(46,56)"/>
<path d="M0 0 C0.495 0.99 0.495 0.99 1 2 C0.67 2.66 0.34 3.32 0 4 C-8.25 4 -16.5 4 -25 4 C-25.66 5.65 -26.32 7.3 -27 9 C-27.97236487 10.6829392 -28.96564444 12.35443434 -30 14 C-28.96593018 13.99476318 -27.93186035 13.98952637 -26.86645508 13.98413086 C-23.01799388 13.96598615 -19.16953645 13.95453341 -15.32104492 13.94506836 C-13.65762699 13.94004977 -11.99421344 13.93323348 -10.33081055 13.92456055 C-7.93537307 13.91238643 -5.53999409 13.90674686 -3.14453125 13.90234375 C-2.03486748 13.89460182 -2.03486748 13.89460182 -0.90278625 13.88670349 C2.86083154 13.88629759 6.34140381 14.09241691 10 15 C10 15.33 10 15.66 10 16 C-4.19 16 -18.38 16 -33 16 C-29.31167691 4.93503073 -29.31167691 4.93503073 -26 2 C-21.7473766 0.888208 -17.62408264 0.97147578 -13.25 1.0625 C-10.9635323 1.05615575 -8.67706983 1.04719017 -6.390625 1.03515625 C-5.38032227 1.0494165 -4.37001953 1.06367676 -3.32910156 1.07836914 C-1.03907365 1.26671621 -1.03907365 1.26671621 0 0 Z " fill="#D2A6DA" transform="translate(79,64)"/>
<path d="M0 0 C4.63697479 4.18823529 4.63697479 4.18823529 5 8 C3.99609375 10.76171875 3.99609375 10.76171875 2.4375 13.6875 C1.94121094 14.66074219 1.44492187 15.63398437 0.93359375 16.63671875 C-1 19 -1 19 -4.02734375 19.70703125 C-5.49880859 19.85205078 -5.49880859 19.85205078 -7 20 C-7.99 20.66 -8.98 21.32 -10 22 C-10.99 21.67 -11.98 21.34 -13 21 C-11.02320506 17.6860791 -9.04316902 14.37410665 -7.0625 11.0625 C-6.49853516 10.11697266 -5.93457031 9.17144531 -5.35351562 8.19726562 C-4.81533203 7.29814453 -4.27714844 6.39902344 -3.72265625 5.47265625 C-3.22515869 4.64000244 -2.72766113 3.80734863 -2.21508789 2.94946289 C-1 1 -1 1 0 0 Z " fill="#5A70D9" transform="translate(32,36)"/>
<path d="M0 0 C1 3 1 3 0.00390625 5.04296875 C-1.33072917 7.02864583 -2.66536458 9.01432292 -4 11 C1.445 11.495 1.445 11.495 7 12 C7 12.33 7 12.66 7 13 C-1.25 13 -9.5 13 -18 13 C-18.33 13.66 -18.66 14.32 -19 15 C-19.66 15 -20.32 15 -21 15 C-21 14.34 -21 13.68 -21 13 C-30.57 13 -40.14 13 -50 13 C-49.67 12.01 -49.34 11.02 -49 10 C-35.14 10.33 -21.28 10.66 -7 11 C-6.34 9.35 -5.68 7.7 -5 6 C-3.5 3.6875 -3.5 3.6875 -2 2 C-1.34 2 -0.68 2 0 2 C0 1.34 0 0.68 0 0 Z " fill="#9383D3" transform="translate(52,20)"/>
<path d="M0 0 C0.93147858 0.04645157 1.86295715 0.09290314 2.82266235 0.14076233 C3.79079865 0.15349686 4.75893494 0.16623138 5.75640869 0.17935181 C8.83577579 0.22956749 11.90915357 0.34242718 14.98672485 0.45716858 C17.07908738 0.50233098 19.17154271 0.5433925 21.2640686 0.58021545 C26.38224666 0.67922035 31.49597211 0.83440701 36.61172485 1.01966858 C35.95172485 2.00966858 35.29172485 2.99966858 34.61172485 4.01966858 C31.55654241 4.1623178 28.70068807 4.12534646 25.65859985 3.96107483 C23.8240292 3.90362941 21.98938936 3.84835988 20.1546936 3.7950592 C17.25840787 3.69616045 14.36558608 3.58237178 11.47158813 3.43006897 C0.53947731 2.32150773 0.53947731 2.32150773 -9.02304077 6.2769928 C-10.56595913 8.8483723 -11.61270369 11.13011279 -12.38827515 14.01966858 C-13.35880032 11.44667029 -13.49584308 10.31231894 -12.53240967 7.69119263 C-9.05612296 1.99168904 -6.74315791 -0.00520621 0 0 Z " fill="#C3AFE0" transform="translate(16.388275146484375,17.980331420898438)"/>
<path d="M0 0 C5.61 0 11.22 0 17 0 C13.38860104 7.04663212 13.38860104 7.04663212 11 10 C7.125 10.625 7.125 10.625 4 10 C4.33 7.36 4.66 4.72 5 2 C3.35 1.67 1.7 1.34 0 1 C0 0.67 0 0.34 0 0 Z " fill="#5237D8" transform="translate(34,21)"/>
<path d="M0 0 C4.02550319 1.3418344 4.88285636 3.4227573 7 7 C7 7.66 7 8.32 7 9 C1.39 9 -4.22 9 -10 9 C-3.16666667 2.16666667 -3.16666667 2.16666667 0 0 Z " fill="#0DC2D1" transform="translate(80,22)"/>
<path d="M0 0 C4.05910468 1.35303489 4.9213069 3.34436731 7 7 C7 8.32 7 9.64 7 11 C6.01 11.33 5.02 11.66 4 12 C3.896875 11.071875 3.79375 10.14375 3.6875 9.1875 C2.96772204 5.85034764 2.42857128 5.16813468 0 3 C-0.37809814 3.6612085 -0.75619629 4.32241699 -1.14575195 5.00366211 C-2.85869466 7.98706577 -4.58537192 10.96228787 -6.3125 13.9375 C-7.20485352 15.49887695 -7.20485352 15.49887695 -8.11523438 17.09179688 C-8.69208984 18.08115234 -9.26894531 19.07050781 -9.86328125 20.08984375 C-10.65665894 21.46450806 -10.65665894 21.46450806 -11.46606445 22.86694336 C-13 25 -13 25 -16 26 C-13.93915516 20.52952627 -11.00737118 15.74337102 -8 10.75 C-7.18015625 9.36554687 -7.18015625 9.36554687 -6.34375 7.953125 C-5.8178125 7.0765625 -5.291875 6.2 -4.75 5.296875 C-4.27046875 4.49604492 -3.7909375 3.69521484 -3.296875 2.87011719 C-2 1 -2 1 0 0 Z " fill="#B2BFDD" transform="translate(32,34)"/>
<path d="M0 0 C2.97 0 5.94 0 9 0 C8.23721377 1.2964351 7.46443041 2.58699148 6.6875 3.875 C6.25824219 4.59429687 5.82898438 5.31359375 5.38671875 6.0546875 C4 8 4 8 1 10 C1 9.01 1 8.02 1 7 C-1.31 7 -3.62 7 -6 7 C-5.25 4.5625 -5.25 4.5625 -4 2 C-1.875 1.1875 -1.875 1.1875 0 1 C0 0.67 0 0.34 0 0 Z M-7 7 C-7 10 -7 10 -7 10 Z " fill="#0869C3" transform="translate(60,36)"/>
<path d="M0 0 C3.51204654 0.08427226 5.3771948 0.37044441 8.06616211 2.68945312 C9.54008789 4.97189159 10.73248335 7.1602521 11.73803711 9.68164062 C11.07803711 10.34164062 10.41803711 11.00164063 9.73803711 11.68164062 C9.45573242 11.03195313 9.17342773 10.38226563 8.88256836 9.71289062 C7.38634574 6.86962887 6.12289556 4.85469992 3.73803711 2.68164062 C-0.68719079 1.87848538 -4.81276758 2.14694505 -9.26196289 2.68164062 C-9.51977539 3.38804688 -9.77758789 4.09445313 -10.04321289 4.82226562 C-11.36094159 7.91385988 -12.95543125 10.59936644 -14.76196289 13.43164062 C-15.37040039 14.39585938 -15.97883789 15.36007813 -16.60571289 16.35351562 C-18.26196289 18.68164062 -18.26196289 18.68164062 -20.26196289 19.68164062 C-18.73926726 15.4404151 -16.58566008 11.7307739 -14.19946289 7.93164062 C-13.83530273 7.34253906 -13.47114258 6.7534375 -13.09594727 6.14648438 C-9.32534006 0.08284616 -6.85262759 0.18710246 0 0 Z " fill="#9DAFD2" transform="translate(66.261962890625,33.318359375)"/>
<path d="M0 0 C2.05439184 1.85557973 3.72383388 3.42925669 4.9375 5.9375 C5.02816926 8.92958546 3.66977643 10.59552194 2 13 C1.67 12.34 1.34 11.68 1 11 C1.33 10.34 1.66 9.68 2 9 C1.01 9 0.02 9 -1 9 C-1 8.34 -1 7.68 -1 7 C-1.99 7.33 -2.98 7.66 -4 8 C-2.87548273 5.0280615 -1.77706209 2.66559313 0 0 Z " fill="#5293E3" transform="translate(32,36)"/>
<path d="M0 0 C4.53432973 0.52462529 4.53432973 0.52462529 6.59326172 2.62646484 C7.03428223 3.31434082 7.47530273 4.0022168 7.9296875 4.7109375 C8.65671875 5.83628906 8.65671875 5.83628906 9.3984375 6.984375 C9.88570312 7.77328125 10.37296875 8.5621875 10.875 9.375 C11.38546875 10.15617187 11.8959375 10.93734375 12.421875 11.7421875 C15.1635125 16.06952886 15.1635125 16.06952886 16 18 C15.67 18.99 15.34 19.98 15 21 C3 4.12391931 3 4.12391931 3 1 C2.01 0.67 1.02 0.34 0 0 Z " fill="#B29CD9" transform="translate(63,44)"/>
<path d="M0 0 C4.38889325 0.66498383 7.9811485 2.18757677 12 4 C11.67 5.65 11.34 7.3 11 9 C6.88949336 7.54923295 3.46285873 5.65754275 0 3 C0 2.01 0 1.02 0 0 Z " fill="#5C1C99" transform="translate(80,65)"/>
<path d="M0 0 C0.66 0 1.32 0 2 0 C0.56691865 3.95906817 -1.33141949 7.28718181 -3.625 10.8125 C-4.25664063 11.78832031 -4.88828125 12.76414062 -5.5390625 13.76953125 C-6.02117188 14.50558594 -6.50328125 15.24164063 -7 16 C-9.97 15.505 -9.97 15.505 -13 15 C-13 14.67 -13 14.34 -13 14 C-12.26136719 13.97035156 -11.52273437 13.94070312 -10.76171875 13.91015625 C-6.83451348 12.61590048 -5.67985595 9.8919265 -3.8125 6.4375 C-2.59325771 4.24470077 -1.33911586 2.12543997 0 0 Z " fill="#A77CCA" transform="translate(50,64)"/>
<path d="M0 0 C2.97 0 5.94 0 9 0 C7.68 2.31 6.36 4.62 5 7 C3.0625 6.3125 3.0625 6.3125 1 5 C0.25 2.375 0.25 2.375 0 0 Z " fill="#166CD7" transform="translate(60,36)"/>
<path d="M0 0 C0 3.88091967 -1.65317733 6.39673296 -3.5 9.6875 C-3.83386719 10.29400391 -4.16773438 10.90050781 -4.51171875 11.52539062 C-5.335537 13.02003231 -6.16703451 14.51043671 -7 16 C-7.99 15.67 -8.98 15.34 -10 15 C-8.71481447 12.68367725 -7.42228734 10.37203058 -6.125 8.0625 C-5.76019531 7.40314453 -5.39539063 6.74378906 -5.01953125 6.06445312 C-2.2265625 1.11328125 -2.2265625 1.11328125 0 0 Z " fill="#949BD4" transform="translate(37,45)"/>
<path d="M0 0 C0.99 0.33 1.98 0.66 3 1 C2.34 1 1.68 1 1 1 C0.7421875 1.70640625 0.484375 2.4128125 0.21875 3.140625 C-1.0989787 6.23221926 -2.69346836 8.91772581 -4.5 11.75 C-5.1084375 12.71421875 -5.716875 13.6784375 -6.34375 14.671875 C-8 17 -8 17 -10 18 C-8.47146065 13.72813475 -6.28490519 10.00673137 -3.875 6.1875 C-3.50246094 5.59001953 -3.12992188 4.99253906 -2.74609375 4.37695312 C-1.8342952 2.91573749 -0.91764024 1.45755415 0 0 Z " fill="#ACCDE5" transform="translate(56,35)"/>
<path d="M0 0 C-1.875 4.875 -1.875 4.875 -3 6 C-5.69082872 5.82364548 -8.32851446 5.38164079 -11 5 C-3.5 0 -3.5 0 0 0 Z " fill="#4C36B9" transform="translate(30,54)"/>
<path d="M0 0 C2.26171875 -0.3046875 2.26171875 -0.3046875 5 0 C7.01953125 2.1171875 7.01953125 2.1171875 8.8125 4.875 C9.71935547 6.23238281 9.71935547 6.23238281 10.64453125 7.6171875 C12 10 12 10 12 12 C11.34 12 10.68 12 10 12 C8.7912002 10.42127834 7.65619701 8.78553783 6.5625 7.125 C4.45962732 3.93662716 3.21088546 2.14059031 0 0 Z " fill="#93DFE3" transform="translate(78,20)"/>
<path d="M0 0 C1 3 1 3 0.22265625 5.04296875 C-0.16019531 5.75066406 -0.54304688 6.45835938 -0.9375 7.1875 C-1.31777344 7.90292969 -1.69804688 8.61835937 -2.08984375 9.35546875 C-2.39019531 9.89816406 -2.69054687 10.44085938 -3 11 C-5.97 10.505 -5.97 10.505 -9 10 C-8.39671875 9.75507812 -7.7934375 9.51015625 -7.171875 9.2578125 C-4.61035221 7.77434067 -3.72499008 6.41526069 -2.25 3.875 C-1.82203125 3.15054688 -1.3940625 2.42609375 -0.953125 1.6796875 C-0.63859375 1.12539062 -0.3240625 0.57109375 0 0 Z " fill="#D0AFDA" transform="translate(93,69)"/>
<path d="M0 0 C4.05910468 1.35303489 4.9213069 3.34436731 7 7 C7 8.32 7 9.64 7 11 C6.01 11.33 5.02 11.66 4 12 C3.896875 11.071875 3.79375 10.14375 3.6875 9.1875 C2.96516098 5.83847362 2.40619812 5.1969635 0 3 C0 2.01 0 1.02 0 0 Z " fill="#AFC5E6" transform="translate(32,34)"/>
<path d="M0 0 C2.25 0.125 2.25 0.125 5 1 C7.375 3.8125 7.375 3.8125 9 7 C8.6015625 9.19921875 8.6015625 9.19921875 8 11 C7.16121545 9.71186658 6.32913217 8.41936744 5.5 7.125 C5.0359375 6.40570313 4.571875 5.68640625 4.09375 4.9453125 C3 3 3 3 3 1 C2.01 0.67 1.02 0.34 0 0 Z " fill="#9FA8DD" transform="translate(63,44)"/>
<path d="M0 0 C0.66 0 1.32 0 2 0 C0.85569823 3.87302138 -0.23320098 7.00263439 -3 10 C-3.66 10 -4.32 10 -5 10 C-3.66749209 6.4124787 -2.169283 3.1635377 0 0 Z " fill="#C4C2E1" transform="translate(21,50)"/>
<path d="M0 0 C0.66 0 1.32 0 2 0 C3.32 2.64 4.64 5.28 6 8 C5.01 8.495 5.01 8.495 4 9 C0 2.25 0 2.25 0 0 Z " fill="#B8BADF" transform="translate(77,44)"/>
<path d="M0 0 C1.32 0.99 2.64 1.98 4 3 C4.66 2.67 5.32 2.34 6 2 C5.67 3.65 5.34 5.3 5 7 C4.34 7 3.68 7 3 7 C0 2.61538462 0 2.61538462 0 0 Z " fill="#A393D5" transform="translate(48,57)"/>
<path d="M0 0 C0.66 0 1.32 0 2 0 C0.90931332 3.77545388 0.0916909 6.47043472 -3 9 C-2.5020163 5.26512223 -2.12508244 3.18762365 0 0 Z " fill="#D7BCE6" transform="translate(6,23)"/>
</svg>
